<svg viewBox="0 0 96 96" xmlns="http://www.w3.org/2000/svg" xmlns:xlink="http://www.w3.org/1999/xlink" id="Icons_Scribble_RTL" overflow="hidden"><style>
.MsftOfcThm_Background1_Fill_v2 {
 fill:#FFFFFF; 
}
</style>
<path d="M49.9 80.2C50.6 80.1 51.2 80 51.8 79.8 58.3 77.4 64.6 74.5 70.6 71 84.8 63.1 86.5 59 86.4 56.3 86.3 54.7 85.4 51.9 80.2 51 75.4 50.2 71.6 49.8 68.4 49.6L67 49.5 68.1 48.7C77.4 41.8 91.8 33.9 92.4 33.5 93.4 33 94 32 94 30.9 94 29.2 92.6 27.9 91 27.9 90.5 27.9 90 28 89.6 28.3 88.8 28.7 70.4 38.8 61 46.7 59.3 48.2 57.5 49.9 58.3 52.3 59.1 54.8 61.5 55.1 66.5 55.5 69.6 55.7 73.8 56.1 79 56.9L80 57.1 79.3 57.8C74.8 62.1 58.3 71.9 49.3 74.3 49.1 74.4 48.9 74.4 48.8 74.5L44.8 69C46 67.8 45.5 66.7 44.8 65.7L34.5 51.4 22.3 63.6 36.9 73.8C37.9 74.5 39.1 75 40.1 73.8L48.5 79.9C48.8 80.1 49.1 80.2 49.4 80.2L49.9 80.2Z" class="MsftOfcThm_Background1_Fill_v2" stroke="none" stroke-width="1" stroke-linecap="butt" stroke-linejoin="miter" stroke-miterlimit="4" fill="#FFFFFF" fill-opacity="1"/><path d="M2 15 2 46 19.3 61.3 32.2 48.5Z" class="MsftOfcThm_Background1_Fill_v2" stroke="none" stroke-width="1" stroke-linecap="butt" stroke-linejoin="miter" stroke-miterlimit="4" fill="#FFFFFF" fill-opacity="1"/></svg>